<mxfile host="www.draw.io" modified="2019-11-20T17:05:16.767Z" agent="Mozilla/5.0 (Windows NT 10.0; Win64; x64; rv:70.0) Gecko/20100101 Firefox/70.0" etag="rqWqSfRYbZ9GgvMoqH_o" version="12.2.7" type="github" pages="1">
  <diagram id="ookkSnt-5DKXbz4JokuE" name="Page-1">
    <mxGraphModel dx="1543" dy="721" grid="1" gridSize="10" guides="1" tooltips="1" connect="1" arrows="1" fold="1" page="1" pageScale="1" pageWidth="827" pageHeight="1169" math="0" shadow="0">
      <root>
        <mxCell id="0"/>
        <mxCell id="1" parent="0"/>
        <mxCell id="phEVHog4hxKk8a_AKW_x-33" style="edgeStyle=orthogonalEdgeStyle;orthogonalLoop=1;jettySize=auto;html=1;curved=1;entryX=1;entryY=0.5;entryDx=0;entryDy=0;fontSize=18;" parent="1" target="phEVHog4hxKk8a_AKW_x-7" edge="1">
          <mxGeometry relative="1" as="geometry">
            <mxPoint x="580" y="569.5" as="sourcePoint"/>
            <mxPoint x="180" y="509.5" as="targetPoint"/>
            <Array as="points">
              <mxPoint x="580" y="499.5"/>
            </Array>
          </mxGeometry>
        </mxCell>
        <mxCell id="phEVHog4hxKk8a_AKW_x-34" value="&lt;font style=&quot;font-size: 21px;&quot;&gt;&lt;font style=&quot;font-size: 21px;&quot;&gt;+&lt;/font&gt;&lt;/font&gt;" style="text;html=1;resizable=0;points=[];align=center;verticalAlign=middle;labelBackgroundColor=#ffffff;fontSize=21;" parent="phEVHog4hxKk8a_AKW_x-33" vertex="1" connectable="0">
          <mxGeometry x="0.0184" y="4" relative="1" as="geometry">
            <mxPoint x="-244" y="-23.5" as="offset"/>
          </mxGeometry>
        </mxCell>
        <mxCell id="phEVHog4hxKk8a_AKW_x-44" style="orthogonalLoop=1;jettySize=auto;html=1;exitX=0;exitY=0;exitDx=0;exitDy=0;entryX=1;entryY=0.5;entryDx=0;entryDy=0;fontSize=18;edgeStyle=orthogonalEdgeStyle;curved=1;" parent="1" source="phEVHog4hxKk8a_AKW_x-1" target="phEVHog4hxKk8a_AKW_x-9" edge="1">
          <mxGeometry relative="1" as="geometry">
            <Array as="points">
              <mxPoint x="581" y="430"/>
            </Array>
          </mxGeometry>
        </mxCell>
        <mxCell id="phEVHog4hxKk8a_AKW_x-46" style="orthogonalLoop=1;jettySize=auto;html=1;exitX=0;exitY=0;exitDx=0;exitDy=0;fontSize=18;edgeStyle=orthogonalEdgeStyle;curved=1;entryX=1;entryY=0.5;entryDx=0;entryDy=0;" parent="1" source="phEVHog4hxKk8a_AKW_x-1" edge="1" target="phEVHog4hxKk8a_AKW_x-13">
          <mxGeometry relative="1" as="geometry">
            <mxPoint x="113" y="373.5" as="targetPoint"/>
            <Array as="points">
              <mxPoint x="581" y="410"/>
              <mxPoint x="113" y="410"/>
              <mxPoint x="113" y="360"/>
            </Array>
          </mxGeometry>
        </mxCell>
        <mxCell id="phEVHog4hxKk8a_AKW_x-51" value="&lt;font style=&quot;font-size: 22px;&quot;&gt;*&lt;/font&gt;" style="text;html=1;resizable=0;points=[];align=center;verticalAlign=middle;labelBackgroundColor=#ffffff;fontSize=22;" parent="phEVHog4hxKk8a_AKW_x-46" vertex="1" connectable="0">
          <mxGeometry x="0.2171" y="-1" relative="1" as="geometry">
            <mxPoint x="-178.5" y="-29.5" as="offset"/>
          </mxGeometry>
        </mxCell>
        <mxCell id="phEVHog4hxKk8a_AKW_x-49" style="orthogonalLoop=1;jettySize=auto;html=1;exitX=0;exitY=0;exitDx=0;exitDy=0;entryX=1;entryY=1;entryDx=0;entryDy=0;fontSize=18;edgeStyle=orthogonalEdgeStyle;curved=1;" parent="1" source="phEVHog4hxKk8a_AKW_x-1" target="phEVHog4hxKk8a_AKW_x-14" edge="1">
          <mxGeometry relative="1" as="geometry">
            <mxPoint x="150" y="319.5" as="targetPoint"/>
            <Array as="points">
              <mxPoint x="581" y="360"/>
              <mxPoint x="71" y="360"/>
            </Array>
          </mxGeometry>
        </mxCell>
        <mxCell id="phEVHog4hxKk8a_AKW_x-50" value="&lt;font style=&quot;font-size: 20px;&quot;&gt;/&lt;/font&gt;" style="text;html=1;resizable=0;points=[];align=center;verticalAlign=middle;labelBackgroundColor=#ffffff;fontSize=20;" parent="phEVHog4hxKk8a_AKW_x-49" vertex="1" connectable="0">
          <mxGeometry x="0.181" y="1" relative="1" as="geometry">
            <mxPoint x="-221.5" y="-31" as="offset"/>
          </mxGeometry>
        </mxCell>
        <mxCell id="phEVHog4hxKk8a_AKW_x-53" style="edgeStyle=orthogonalEdgeStyle;curved=1;orthogonalLoop=1;jettySize=auto;html=1;exitX=0;exitY=0;exitDx=0;exitDy=0;entryX=0.5;entryY=1;entryDx=0;entryDy=0;fontSize=18;" parent="1" source="phEVHog4hxKk8a_AKW_x-1" edge="1">
          <mxGeometry relative="1" as="geometry">
            <mxPoint x="120" y="259.5" as="targetPoint"/>
            <Array as="points">
              <mxPoint x="581" y="350"/>
              <mxPoint x="120" y="350"/>
            </Array>
          </mxGeometry>
        </mxCell>
        <mxCell id="phEVHog4hxKk8a_AKW_x-54" value="&lt;font style=&quot;font-size: 18px;&quot;&gt;&amp;gt;&lt;/font&gt;" style="text;html=1;resizable=0;points=[];align=center;verticalAlign=middle;labelBackgroundColor=#ffffff;fontSize=18;" parent="phEVHog4hxKk8a_AKW_x-53" vertex="1" connectable="0">
          <mxGeometry x="0.1537" relative="1" as="geometry">
            <mxPoint x="-37" y="-17" as="offset"/>
          </mxGeometry>
        </mxCell>
        <mxCell id="phEVHog4hxKk8a_AKW_x-55" style="edgeStyle=orthogonalEdgeStyle;curved=1;orthogonalLoop=1;jettySize=auto;html=1;fontSize=18;exitX=0;exitY=0;exitDx=0;exitDy=0;" parent="1" source="phEVHog4hxKk8a_AKW_x-1" edge="1">
          <mxGeometry relative="1" as="geometry">
            <mxPoint x="190" y="259.0803989154981" as="targetPoint"/>
            <Array as="points">
              <mxPoint x="581" y="320"/>
              <mxPoint x="190" y="320"/>
            </Array>
          </mxGeometry>
        </mxCell>
        <mxCell id="phEVHog4hxKk8a_AKW_x-56" value="&lt;font style=&quot;font-size: 18px;&quot;&gt;&amp;lt;&lt;/font&gt;" style="text;html=1;resizable=0;points=[];align=center;verticalAlign=middle;labelBackgroundColor=#ffffff;fontSize=18;" parent="phEVHog4hxKk8a_AKW_x-55" vertex="1" connectable="0">
          <mxGeometry x="0.36" y="2" relative="1" as="geometry">
            <mxPoint x="-32.5" y="-22" as="offset"/>
          </mxGeometry>
        </mxCell>
        <mxCell id="phEVHog4hxKk8a_AKW_x-73" style="edgeStyle=orthogonalEdgeStyle;curved=1;orthogonalLoop=1;jettySize=auto;html=1;exitX=0;exitY=0;exitDx=0;exitDy=0;fontSize=18;entryX=1;entryY=0.5;entryDx=0;entryDy=0;" parent="1" source="phEVHog4hxKk8a_AKW_x-1" target="phEVHog4hxKk8a_AKW_x-24" edge="1">
          <mxGeometry relative="1" as="geometry">
            <Array as="points">
              <mxPoint x="460" y="581"/>
              <mxPoint x="460" y="580"/>
            </Array>
          </mxGeometry>
        </mxCell>
        <mxCell id="Kf4OGwQjmnl409fR8g-T-22" value="a..z, A..Z, _" style="text;html=1;resizable=0;points=[];align=center;verticalAlign=middle;labelBackgroundColor=#ffffff;fontSize=18;" parent="phEVHog4hxKk8a_AKW_x-73" vertex="1" connectable="0">
          <mxGeometry x="0.3284" y="-7" relative="1" as="geometry">
            <mxPoint x="-15.5" y="-13.5" as="offset"/>
          </mxGeometry>
        </mxCell>
        <mxCell id="phEVHog4hxKk8a_AKW_x-75" style="orthogonalLoop=1;jettySize=auto;html=1;entryX=0;entryY=1;entryDx=0;entryDy=0;fontSize=18;edgeStyle=orthogonalEdgeStyle;curved=1;exitX=0.284;exitY=0.065;exitDx=0;exitDy=0;exitPerimeter=0;" parent="1" source="phEVHog4hxKk8a_AKW_x-1" target="phEVHog4hxKk8a_AKW_x-22" edge="1">
          <mxGeometry relative="1" as="geometry">
            <Array as="points">
              <mxPoint x="580" y="575"/>
              <mxPoint x="580" y="220"/>
              <mxPoint x="450" y="220"/>
              <mxPoint x="450" y="160"/>
              <mxPoint x="464" y="160"/>
            </Array>
          </mxGeometry>
        </mxCell>
        <mxCell id="phEVHog4hxKk8a_AKW_x-76" value="&lt;font style=&quot;font-size: 18px;&quot;&gt;EOF&lt;/font&gt;" style="text;html=1;resizable=0;points=[];align=center;verticalAlign=middle;labelBackgroundColor=#ffffff;fontSize=18;" parent="phEVHog4hxKk8a_AKW_x-75" vertex="1" connectable="0">
          <mxGeometry x="0.1111" y="6" relative="1" as="geometry">
            <mxPoint x="-84" y="-64.5" as="offset"/>
          </mxGeometry>
        </mxCell>
        <mxCell id="phEVHog4hxKk8a_AKW_x-77" style="orthogonalLoop=1;jettySize=auto;html=1;exitX=0.5;exitY=0;exitDx=0;exitDy=0;entryX=0.5;entryY=1;entryDx=0;entryDy=0;fontSize=18;" parent="1" source="phEVHog4hxKk8a_AKW_x-1" target="phEVHog4hxKk8a_AKW_x-21" edge="1">
          <mxGeometry relative="1" as="geometry">
            <mxPoint x="800" y="280" as="targetPoint"/>
          </mxGeometry>
        </mxCell>
        <mxCell id="phEVHog4hxKk8a_AKW_x-78" value="&#39;\n&#39;" style="text;html=1;resizable=0;points=[];align=center;verticalAlign=middle;labelBackgroundColor=#ffffff;fontSize=18;" parent="phEVHog4hxKk8a_AKW_x-77" vertex="1" connectable="0">
          <mxGeometry x="0.2163" y="7" relative="1" as="geometry">
            <mxPoint x="19" y="-110" as="offset"/>
          </mxGeometry>
        </mxCell>
        <mxCell id="Kf4OGwQjmnl409fR8g-T-13" style="orthogonalLoop=1;jettySize=auto;html=1;exitX=1;exitY=0;exitDx=0;exitDy=0;fontSize=18;edgeStyle=orthogonalEdgeStyle;curved=1;" parent="1" source="phEVHog4hxKk8a_AKW_x-1" target="phEVHog4hxKk8a_AKW_x-10" edge="1">
          <mxGeometry relative="1" as="geometry"/>
        </mxCell>
        <mxCell id="Kf4OGwQjmnl409fR8g-T-14" value="&lt;font style=&quot;font-size: 21px;&quot;&gt;(&lt;/font&gt;" style="text;html=1;resizable=0;points=[];align=center;verticalAlign=middle;labelBackgroundColor=#ffffff;fontSize=21;" parent="Kf4OGwQjmnl409fR8g-T-13" vertex="1" connectable="0">
          <mxGeometry x="0.1904" relative="1" as="geometry">
            <mxPoint x="-17" y="-84" as="offset"/>
          </mxGeometry>
        </mxCell>
        <mxCell id="Kf4OGwQjmnl409fR8g-T-24" style="orthogonalLoop=1;jettySize=auto;html=1;fontSize=13;exitX=1;exitY=0;exitDx=0;exitDy=0;entryX=0.5;entryY=1;entryDx=0;entryDy=0;edgeStyle=orthogonalEdgeStyle;elbow=vertical;curved=1;" parent="1" source="phEVHog4hxKk8a_AKW_x-1" target="phEVHog4hxKk8a_AKW_x-12" edge="1">
          <mxGeometry relative="1" as="geometry"/>
        </mxCell>
        <mxCell id="Kf4OGwQjmnl409fR8g-T-26" value="&lt;font style=&quot;font-size: 29px;&quot;&gt;,&lt;/font&gt;" style="text;html=1;resizable=0;points=[];align=center;verticalAlign=middle;labelBackgroundColor=#ffffff;fontSize=29;" parent="Kf4OGwQjmnl409fR8g-T-24" vertex="1" connectable="0">
          <mxGeometry x="-0.1161" y="-3" relative="1" as="geometry">
            <mxPoint x="7.5" y="-253.5" as="offset"/>
          </mxGeometry>
        </mxCell>
        <mxCell id="Kf4OGwQjmnl409fR8g-T-33" style="edgeStyle=orthogonalEdgeStyle;curved=1;orthogonalLoop=1;jettySize=auto;html=1;exitX=0.5;exitY=1;exitDx=0;exitDy=0;fontSize=29;" parent="1" source="phEVHog4hxKk8a_AKW_x-1" target="phEVHog4hxKk8a_AKW_x-27" edge="1">
          <mxGeometry relative="1" as="geometry"/>
        </mxCell>
        <mxCell id="Kf4OGwQjmnl409fR8g-T-50" style="orthogonalLoop=1;jettySize=auto;html=1;exitX=1;exitY=0;exitDx=0;exitDy=0;entryX=0.5;entryY=1;entryDx=0;entryDy=0;fontSize=16;edgeStyle=orthogonalEdgeStyle;curved=1;" parent="1" source="phEVHog4hxKk8a_AKW_x-1" target="phEVHog4hxKk8a_AKW_x-19" edge="1">
          <mxGeometry relative="1" as="geometry"/>
        </mxCell>
        <mxCell id="Kf4OGwQjmnl409fR8g-T-60" style="edgeStyle=orthogonalEdgeStyle;curved=1;orthogonalLoop=1;jettySize=auto;html=1;exitX=0;exitY=0;exitDx=0;exitDy=0;fontSize=16;entryX=0;entryY=1;entryDx=0;entryDy=0;" parent="1" source="phEVHog4hxKk8a_AKW_x-1" target="phEVHog4hxKk8a_AKW_x-1" edge="1">
          <mxGeometry relative="1" as="geometry">
            <mxPoint x="350" y="760" as="targetPoint"/>
            <Array as="points">
              <mxPoint x="581" y="610"/>
              <mxPoint x="430" y="610"/>
              <mxPoint x="430" y="637"/>
            </Array>
          </mxGeometry>
        </mxCell>
        <mxCell id="D40imSKEfPFC3WLuh7PR-13" style="orthogonalLoop=1;jettySize=auto;html=1;exitX=1;exitY=1;exitDx=0;exitDy=0;entryX=0.5;entryY=0;entryDx=0;entryDy=0;" parent="1" source="phEVHog4hxKk8a_AKW_x-1" edge="1">
          <mxGeometry relative="1" as="geometry">
            <mxPoint x="710" y="675" as="targetPoint"/>
          </mxGeometry>
        </mxCell>
        <mxCell id="kk19jb1IvxCeBUpHuE0u-11" style="edgeStyle=orthogonalEdgeStyle;curved=1;rounded=0;orthogonalLoop=1;jettySize=auto;html=1;" edge="1" parent="1" source="phEVHog4hxKk8a_AKW_x-1">
          <mxGeometry relative="1" as="geometry">
            <mxPoint x="610" y="570" as="targetPoint"/>
          </mxGeometry>
        </mxCell>
        <mxCell id="kk19jb1IvxCeBUpHuE0u-21" style="edgeStyle=orthogonalEdgeStyle;rounded=0;orthogonalLoop=1;jettySize=auto;html=1;exitX=1;exitY=0;exitDx=0;exitDy=0;entryX=0.5;entryY=1;entryDx=0;entryDy=0;curved=1;" edge="1" parent="1" source="phEVHog4hxKk8a_AKW_x-1" target="kk19jb1IvxCeBUpHuE0u-19">
          <mxGeometry relative="1" as="geometry"/>
        </mxCell>
        <mxCell id="kk19jb1IvxCeBUpHuE0u-26" style="edgeStyle=orthogonalEdgeStyle;curved=1;rounded=0;orthogonalLoop=1;jettySize=auto;html=1;exitX=1;exitY=0.5;exitDx=0;exitDy=0;fontSize=17;" edge="1" parent="1" source="phEVHog4hxKk8a_AKW_x-1">
          <mxGeometry relative="1" as="geometry">
            <mxPoint x="650" y="610" as="targetPoint"/>
            <Array as="points">
              <mxPoint x="950" y="610"/>
              <mxPoint x="950" y="637"/>
            </Array>
          </mxGeometry>
        </mxCell>
        <mxCell id="kk19jb1IvxCeBUpHuE0u-36" style="edgeStyle=orthogonalEdgeStyle;curved=1;rounded=0;orthogonalLoop=1;jettySize=auto;html=1;exitX=1;exitY=0;exitDx=0;exitDy=0;entryX=0.5;entryY=1;entryDx=0;entryDy=0;fontSize=17;" edge="1" parent="1" source="phEVHog4hxKk8a_AKW_x-1" target="kk19jb1IvxCeBUpHuE0u-34">
          <mxGeometry relative="1" as="geometry"/>
        </mxCell>
        <mxCell id="kk19jb1IvxCeBUpHuE0u-37" style="edgeStyle=orthogonalEdgeStyle;curved=1;rounded=0;orthogonalLoop=1;jettySize=auto;html=1;exitX=1;exitY=0;exitDx=0;exitDy=0;entryX=0.5;entryY=1;entryDx=0;entryDy=0;fontSize=17;" edge="1" parent="1" source="phEVHog4hxKk8a_AKW_x-1" target="kk19jb1IvxCeBUpHuE0u-35">
          <mxGeometry relative="1" as="geometry"/>
        </mxCell>
        <mxCell id="kk19jb1IvxCeBUpHuE0u-41" style="edgeStyle=orthogonalEdgeStyle;curved=1;rounded=0;orthogonalLoop=1;jettySize=auto;html=1;exitX=0;exitY=0;exitDx=0;exitDy=0;entryX=0.5;entryY=1;entryDx=0;entryDy=0;fontSize=17;" edge="1" parent="1" source="phEVHog4hxKk8a_AKW_x-1" target="kk19jb1IvxCeBUpHuE0u-40">
          <mxGeometry relative="1" as="geometry">
            <Array as="points">
              <mxPoint x="581" y="290"/>
              <mxPoint x="280" y="290"/>
            </Array>
          </mxGeometry>
        </mxCell>
        <mxCell id="kk19jb1IvxCeBUpHuE0u-47" style="edgeStyle=none;rounded=0;orthogonalLoop=1;jettySize=auto;html=1;exitX=1;exitY=1;exitDx=0;exitDy=0;entryX=0.5;entryY=0;entryDx=0;entryDy=0;fontSize=17;" edge="1" parent="1" source="phEVHog4hxKk8a_AKW_x-1" target="kk19jb1IvxCeBUpHuE0u-46">
          <mxGeometry relative="1" as="geometry"/>
        </mxCell>
        <mxCell id="kk19jb1IvxCeBUpHuE0u-51" style="edgeStyle=orthogonalEdgeStyle;curved=1;rounded=0;orthogonalLoop=1;jettySize=auto;html=1;exitX=0;exitY=0;exitDx=0;exitDy=0;fontSize=26;" edge="1" parent="1" source="phEVHog4hxKk8a_AKW_x-1" target="kk19jb1IvxCeBUpHuE0u-49">
          <mxGeometry relative="1" as="geometry">
            <Array as="points">
              <mxPoint x="320" y="581"/>
              <mxPoint x="320" y="651"/>
            </Array>
          </mxGeometry>
        </mxCell>
        <mxCell id="kk19jb1IvxCeBUpHuE0u-78" style="rounded=0;orthogonalLoop=1;jettySize=auto;html=1;exitX=1;exitY=0;exitDx=0;exitDy=0;entryX=0.5;entryY=1;entryDx=0;entryDy=0;fontSize=26;edgeStyle=orthogonalEdgeStyle;curved=1;" edge="1" parent="1" source="phEVHog4hxKk8a_AKW_x-1" target="phEVHog4hxKk8a_AKW_x-11">
          <mxGeometry relative="1" as="geometry"/>
        </mxCell>
        <mxCell id="kk19jb1IvxCeBUpHuE0u-81" style="rounded=0;orthogonalLoop=1;jettySize=auto;html=1;exitX=1;exitY=0;exitDx=0;exitDy=0;entryX=0.5;entryY=1;entryDx=0;entryDy=0;fontSize=26;edgeStyle=orthogonalEdgeStyle;curved=1;" edge="1" parent="1" source="phEVHog4hxKk8a_AKW_x-1" target="kk19jb1IvxCeBUpHuE0u-30">
          <mxGeometry relative="1" as="geometry"/>
        </mxCell>
        <mxCell id="kk19jb1IvxCeBUpHuE0u-82" style="rounded=0;orthogonalLoop=1;jettySize=auto;html=1;exitX=1;exitY=0;exitDx=0;exitDy=0;entryX=0.5;entryY=1;entryDx=0;entryDy=0;fontSize=26;edgeStyle=orthogonalEdgeStyle;curved=1;" edge="1" parent="1" source="phEVHog4hxKk8a_AKW_x-1" target="phEVHog4hxKk8a_AKW_x-23">
          <mxGeometry relative="1" as="geometry">
            <Array as="points">
              <mxPoint x="690" y="582"/>
              <mxPoint x="690" y="220"/>
            </Array>
          </mxGeometry>
        </mxCell>
        <mxCell id="phEVHog4hxKk8a_AKW_x-1" value="&lt;font style=&quot;font-size: 18px;&quot;&gt;S&lt;/font&gt;" style="ellipse;whiteSpace=wrap;html=1;aspect=fixed;fontSize=18;" parent="1" vertex="1">
          <mxGeometry x="570" y="569.5" width="80" height="80" as="geometry"/>
        </mxCell>
        <mxCell id="phEVHog4hxKk8a_AKW_x-7" value="&lt;font style=&quot;font-size: 18px;&quot;&gt;+&lt;/font&gt;" style="ellipse;shape=doubleEllipse;html=1;dashed=0;whitespace=wrap;aspect=fixed;fontFamily=Verdana;fontSize=18;" parent="1" vertex="1">
          <mxGeometry x="30" y="470" width="60" height="60" as="geometry"/>
        </mxCell>
        <mxCell id="phEVHog4hxKk8a_AKW_x-9" value="&lt;font style=&quot;font-size: 18px;&quot;&gt;-&lt;/font&gt;" style="ellipse;shape=doubleEllipse;html=1;dashed=0;whitespace=wrap;aspect=fixed;fontFamily=Verdana;fontSize=18;" parent="1" vertex="1">
          <mxGeometry x="30" y="400" width="60" height="60" as="geometry"/>
        </mxCell>
        <mxCell id="phEVHog4hxKk8a_AKW_x-10" value="&lt;font style=&quot;font-size: 18px;&quot;&gt;(&lt;/font&gt;" style="ellipse;shape=doubleEllipse;html=1;dashed=0;whitespace=wrap;aspect=fixed;fontFamily=Verdana;fontSize=18;" parent="1" vertex="1">
          <mxGeometry x="747.5" y="160" width="60" height="60" as="geometry"/>
        </mxCell>
        <mxCell id="phEVHog4hxKk8a_AKW_x-11" value="&lt;font style=&quot;font-size: 18px;&quot;&gt;)&lt;/font&gt;" style="ellipse;shape=doubleEllipse;html=1;dashed=0;whitespace=wrap;aspect=fixed;fontFamily=Verdana;fontSize=18;" parent="1" vertex="1">
          <mxGeometry x="819" y="160" width="60" height="60" as="geometry"/>
        </mxCell>
        <mxCell id="phEVHog4hxKk8a_AKW_x-12" value="&lt;font style=&quot;font-size: 18px;&quot;&gt;,&lt;/font&gt;" style="ellipse;shape=doubleEllipse;html=1;dashed=0;whitespace=wrap;aspect=fixed;fontFamily=Verdana;fontSize=18;" parent="1" vertex="1">
          <mxGeometry x="960" y="160" width="60" height="60" as="geometry"/>
        </mxCell>
        <mxCell id="phEVHog4hxKk8a_AKW_x-13" value="&lt;font style=&quot;font-size: 18px;&quot;&gt;*&lt;/font&gt;" style="ellipse;shape=doubleEllipse;html=1;dashed=0;whitespace=wrap;aspect=fixed;fontFamily=Verdana;fontSize=18;" parent="1" vertex="1">
          <mxGeometry x="30" y="330" width="60" height="60" as="geometry"/>
        </mxCell>
        <mxCell id="phEVHog4hxKk8a_AKW_x-14" value="&lt;font style=&quot;font-size: 18px;&quot;&gt;/&lt;/font&gt;" style="ellipse;shape=doubleEllipse;html=1;dashed=0;whitespace=wrap;aspect=fixed;fontFamily=Verdana;fontSize=18;" parent="1" vertex="1">
          <mxGeometry x="20" y="259.5" width="60" height="60" as="geometry"/>
        </mxCell>
        <mxCell id="phEVHog4hxKk8a_AKW_x-85" style="edgeStyle=orthogonalEdgeStyle;curved=1;orthogonalLoop=1;jettySize=auto;html=1;exitX=0.5;exitY=0;exitDx=0;exitDy=0;entryX=0;entryY=0;entryDx=0;entryDy=0;fontSize=18;" parent="1" source="phEVHog4hxKk8a_AKW_x-15" target="phEVHog4hxKk8a_AKW_x-18" edge="1">
          <mxGeometry relative="1" as="geometry">
            <mxPoint x="60" y="110" as="targetPoint"/>
            <Array as="points">
              <mxPoint x="120" y="190"/>
              <mxPoint x="60" y="190"/>
              <mxPoint x="60" y="110"/>
            </Array>
          </mxGeometry>
        </mxCell>
        <mxCell id="phEVHog4hxKk8a_AKW_x-87" value="&lt;font style=&quot;font-size: 18px;&quot;&gt;=&lt;/font&gt;" style="text;html=1;resizable=0;points=[];align=center;verticalAlign=middle;labelBackgroundColor=#ffffff;fontSize=18;" parent="phEVHog4hxKk8a_AKW_x-85" vertex="1" connectable="0">
          <mxGeometry x="0.039" y="-4" relative="1" as="geometry">
            <mxPoint x="-4" y="-6.5" as="offset"/>
          </mxGeometry>
        </mxCell>
        <mxCell id="phEVHog4hxKk8a_AKW_x-15" value="&lt;font style=&quot;font-size: 18px;&quot;&gt;&amp;gt;&lt;/font&gt;" style="ellipse;shape=doubleEllipse;html=1;dashed=0;whitespace=wrap;aspect=fixed;fontFamily=Verdana;fontSize=18;" parent="1" vertex="1">
          <mxGeometry x="90" y="200" width="60" height="60" as="geometry"/>
        </mxCell>
        <mxCell id="phEVHog4hxKk8a_AKW_x-60" style="edgeStyle=orthogonalEdgeStyle;curved=1;orthogonalLoop=1;jettySize=auto;html=1;exitX=0.5;exitY=0;exitDx=0;exitDy=0;fontSize=18;" parent="1" source="phEVHog4hxKk8a_AKW_x-16" target="phEVHog4hxKk8a_AKW_x-17" edge="1">
          <mxGeometry relative="1" as="geometry"/>
        </mxCell>
        <mxCell id="phEVHog4hxKk8a_AKW_x-16" value="&lt;font style=&quot;font-size: 18px;&quot;&gt;&amp;lt;&lt;/font&gt;" style="ellipse;shape=doubleEllipse;html=1;dashed=0;whitespace=wrap;aspect=fixed;fontFamily=Verdana;fontSize=18;" parent="1" vertex="1">
          <mxGeometry x="160" y="200" width="60" height="60" as="geometry"/>
        </mxCell>
        <mxCell id="phEVHog4hxKk8a_AKW_x-17" value="&lt;font style=&quot;font-size: 18px;&quot;&gt;&amp;lt;&lt;/font&gt;&lt;font style=&quot;font-size: 18px;&quot;&gt;=&lt;/font&gt;" style="ellipse;shape=doubleEllipse;html=1;dashed=0;whitespace=wrap;aspect=fixed;fontFamily=Verdana;fontSize=18;" parent="1" vertex="1">
          <mxGeometry x="160" y="82" width="60" height="60" as="geometry"/>
        </mxCell>
        <mxCell id="phEVHog4hxKk8a_AKW_x-18" value="&lt;font style=&quot;font-size: 18px;&quot;&gt;&amp;gt;&lt;font style=&quot;font-size: 18px;&quot;&gt;=&lt;/font&gt;&lt;/font&gt;" style="ellipse;shape=doubleEllipse;html=1;dashed=0;whitespace=wrap;aspect=fixed;fontFamily=Verdana;fontSize=18;" parent="1" vertex="1">
          <mxGeometry x="80" y="100" width="60" height="60" as="geometry"/>
        </mxCell>
        <mxCell id="kk19jb1IvxCeBUpHuE0u-6" style="edgeStyle=orthogonalEdgeStyle;curved=1;rounded=0;orthogonalLoop=1;jettySize=auto;html=1;exitX=0.5;exitY=0;exitDx=0;exitDy=0;" edge="1" parent="1" source="phEVHog4hxKk8a_AKW_x-19" target="kk19jb1IvxCeBUpHuE0u-5">
          <mxGeometry relative="1" as="geometry"/>
        </mxCell>
        <mxCell id="phEVHog4hxKk8a_AKW_x-19" value="&lt;font style=&quot;font-size: 18px&quot;&gt;!&lt;/font&gt;" style="ellipse;shape=doubleEllipse;html=1;dashed=0;whitespace=wrap;aspect=fixed;fontFamily=Verdana;fontSize=18;" parent="1" vertex="1">
          <mxGeometry x="890" y="160" width="60" height="60" as="geometry"/>
        </mxCell>
        <mxCell id="phEVHog4hxKk8a_AKW_x-20" value="&lt;font style=&quot;font-size: 18px;&quot;&gt;==&lt;/font&gt;" style="ellipse;shape=doubleEllipse;html=1;dashed=0;whitespace=wrap;aspect=fixed;fontFamily=Verdana;fontSize=18;" parent="1" vertex="1">
          <mxGeometry x="675" y="22" width="60" height="60" as="geometry"/>
        </mxCell>
        <mxCell id="kk19jb1IvxCeBUpHuE0u-8" style="edgeStyle=orthogonalEdgeStyle;curved=1;rounded=0;orthogonalLoop=1;jettySize=auto;html=1;entryX=0.5;entryY=0;entryDx=0;entryDy=0;" edge="1" parent="1" source="phEVHog4hxKk8a_AKW_x-21" target="phEVHog4hxKk8a_AKW_x-1">
          <mxGeometry relative="1" as="geometry">
            <Array as="points">
              <mxPoint x="660" y="111"/>
              <mxPoint x="660" y="500"/>
              <mxPoint x="640" y="500"/>
              <mxPoint x="640" y="570"/>
            </Array>
          </mxGeometry>
        </mxCell>
        <mxCell id="phEVHog4hxKk8a_AKW_x-21" value="&lt;font style=&quot;font-size: 18px;&quot;&gt;EOL&lt;/font&gt;" style="ellipse;shape=doubleEllipse;html=1;dashed=0;whitespace=wrap;aspect=fixed;fontFamily=Verdana;fontSize=18;" parent="1" vertex="1">
          <mxGeometry x="560" y="82" width="60" height="60" as="geometry"/>
        </mxCell>
        <mxCell id="kk19jb1IvxCeBUpHuE0u-77" style="edgeStyle=orthogonalEdgeStyle;curved=1;rounded=0;orthogonalLoop=1;jettySize=auto;html=1;exitX=1;exitY=0.5;exitDx=0;exitDy=0;entryX=0.302;entryY=0.047;entryDx=0;entryDy=0;entryPerimeter=0;fontSize=26;" edge="1" parent="1" source="phEVHog4hxKk8a_AKW_x-22" target="phEVHog4hxKk8a_AKW_x-1">
          <mxGeometry relative="1" as="geometry"/>
        </mxCell>
        <mxCell id="phEVHog4hxKk8a_AKW_x-22" value="&lt;font style=&quot;font-size: 18px;&quot;&gt;EOF&lt;/font&gt;" style="ellipse;shape=doubleEllipse;html=1;dashed=0;whitespace=wrap;aspect=fixed;fontFamily=Verdana;fontSize=18;" parent="1" vertex="1">
          <mxGeometry x="455" y="82" width="60" height="60" as="geometry"/>
        </mxCell>
        <mxCell id="kk19jb1IvxCeBUpHuE0u-12" style="edgeStyle=orthogonalEdgeStyle;curved=1;rounded=0;orthogonalLoop=1;jettySize=auto;html=1;exitX=0.5;exitY=0;exitDx=0;exitDy=0;entryX=0.5;entryY=1;entryDx=0;entryDy=0;" edge="1" parent="1" source="phEVHog4hxKk8a_AKW_x-23" target="phEVHog4hxKk8a_AKW_x-20">
          <mxGeometry relative="1" as="geometry"/>
        </mxCell>
        <mxCell id="phEVHog4hxKk8a_AKW_x-23" value="&lt;font style=&quot;font-size: 18px;&quot;&gt;=&lt;/font&gt;" style="ellipse;shape=doubleEllipse;html=1;dashed=0;whitespace=wrap;aspect=fixed;fontFamily=Verdana;fontSize=18;" parent="1" vertex="1">
          <mxGeometry x="672.5" y="160" width="60" height="60" as="geometry"/>
        </mxCell>
        <mxCell id="Kf4OGwQjmnl409fR8g-T-19" style="edgeStyle=orthogonalEdgeStyle;curved=1;orthogonalLoop=1;jettySize=auto;html=1;fontSize=18;" parent="1" source="phEVHog4hxKk8a_AKW_x-24" target="phEVHog4hxKk8a_AKW_x-25" edge="1">
          <mxGeometry relative="1" as="geometry"/>
        </mxCell>
        <mxCell id="phEVHog4hxKk8a_AKW_x-24" value="&lt;font style=&quot;font-size: 18px;&quot;&gt;ID&lt;/font&gt;" style="ellipse;shape=doubleEllipse;html=1;dashed=0;whitespace=wrap;aspect=fixed;fontFamily=Verdana;fontSize=18;" parent="1" vertex="1">
          <mxGeometry x="210" y="550" width="60" height="60" as="geometry"/>
        </mxCell>
        <mxCell id="phEVHog4hxKk8a_AKW_x-25" value="keyword" style="ellipse;shape=doubleEllipse;html=1;dashed=0;whitespace=wrap;aspect=fixed;fontFamily=Verdana;fontSize=14;" parent="1" vertex="1">
          <mxGeometry x="25" y="550" width="70" height="70" as="geometry"/>
        </mxCell>
        <mxCell id="Kf4OGwQjmnl409fR8g-T-35" style="edgeStyle=orthogonalEdgeStyle;curved=1;orthogonalLoop=1;jettySize=auto;html=1;exitX=0;exitY=0.5;exitDx=0;exitDy=0;entryX=0.5;entryY=0;entryDx=0;entryDy=0;fontSize=29;" parent="1" source="phEVHog4hxKk8a_AKW_x-27" target="phEVHog4hxKk8a_AKW_x-29" edge="1">
          <mxGeometry relative="1" as="geometry"/>
        </mxCell>
        <mxCell id="Kf4OGwQjmnl409fR8g-T-36" style="edgeStyle=orthogonalEdgeStyle;curved=1;orthogonalLoop=1;jettySize=auto;html=1;exitX=1;exitY=0.5;exitDx=0;exitDy=0;entryX=0.5;entryY=0;entryDx=0;entryDy=0;fontSize=29;" parent="1" source="phEVHog4hxKk8a_AKW_x-27" target="phEVHog4hxKk8a_AKW_x-28" edge="1">
          <mxGeometry relative="1" as="geometry"/>
        </mxCell>
        <mxCell id="Kf4OGwQjmnl409fR8g-T-37" style="edgeStyle=orthogonalEdgeStyle;curved=1;orthogonalLoop=1;jettySize=auto;html=1;exitX=0;exitY=0;exitDx=0;exitDy=0;fontSize=29;" parent="1" source="phEVHog4hxKk8a_AKW_x-27" target="phEVHog4hxKk8a_AKW_x-1" edge="1">
          <mxGeometry relative="1" as="geometry">
            <mxPoint x="520" y="610" as="targetPoint"/>
            <Array as="points">
              <mxPoint x="493" y="720"/>
              <mxPoint x="520" y="720"/>
              <mxPoint x="520" y="610"/>
            </Array>
          </mxGeometry>
        </mxCell>
        <mxCell id="kk19jb1IvxCeBUpHuE0u-57" style="edgeStyle=orthogonalEdgeStyle;curved=1;rounded=0;orthogonalLoop=1;jettySize=auto;html=1;exitX=0;exitY=0.5;exitDx=0;exitDy=0;fontSize=26;" edge="1" parent="1" source="phEVHog4hxKk8a_AKW_x-27" target="kk19jb1IvxCeBUpHuE0u-56">
          <mxGeometry relative="1" as="geometry"/>
        </mxCell>
        <mxCell id="phEVHog4hxKk8a_AKW_x-27" value="&lt;div style=&quot;font-size: 13px;&quot;&gt;indentation&lt;/div&gt;&lt;div style=&quot;font-size: 13px;&quot;&gt;check&lt;br style=&quot;font-size: 13px;&quot;&gt;&lt;/div&gt;" style="ellipse;shape=doubleEllipse;html=1;dashed=0;whitespace=wrap;aspect=fixed;fontFamily=Verdana;fontSize=13;" parent="1" vertex="1">
          <mxGeometry x="480" y="830" width="90" height="90" as="geometry"/>
        </mxCell>
        <mxCell id="kk19jb1IvxCeBUpHuE0u-55" style="edgeStyle=orthogonalEdgeStyle;curved=1;rounded=0;orthogonalLoop=1;jettySize=auto;html=1;exitX=1;exitY=0;exitDx=0;exitDy=0;entryX=0.643;entryY=0.988;entryDx=0;entryDy=0;entryPerimeter=0;fontSize=26;" edge="1" parent="1" source="phEVHog4hxKk8a_AKW_x-28" target="phEVHog4hxKk8a_AKW_x-1">
          <mxGeometry relative="1" as="geometry"/>
        </mxCell>
        <mxCell id="phEVHog4hxKk8a_AKW_x-28" value="&lt;div&gt;INDENT &lt;br&gt;&lt;/div&gt;&lt;div&gt;END&lt;/div&gt;" style="ellipse;shape=doubleEllipse;html=1;dashed=0;whitespace=wrap;aspect=fixed;fontFamily=Verdana;fontSize=13;" parent="1" vertex="1">
          <mxGeometry x="590" y="945" width="70" height="70" as="geometry"/>
        </mxCell>
        <mxCell id="phEVHog4hxKk8a_AKW_x-29" value="INDENT" style="ellipse;shape=doubleEllipse;html=1;dashed=0;whitespace=wrap;aspect=fixed;fontFamily=Verdana;fontSize=13;" parent="1" vertex="1">
          <mxGeometry x="395" y="945" width="70" height="70" as="geometry"/>
        </mxCell>
        <mxCell id="Kf4OGwQjmnl409fR8g-T-18" value="=" style="text;html=1;resizable=0;points=[];align=center;verticalAlign=middle;labelBackgroundColor=#ffffff;fontSize=18;" parent="1" vertex="1" connectable="0">
          <mxGeometry x="189.78571428571422" y="171.8571428571429" as="geometry">
            <mxPoint x="0.5" y="-1" as="offset"/>
          </mxGeometry>
        </mxCell>
        <mxCell id="Kf4OGwQjmnl409fR8g-T-27" value="&lt;font style=&quot;font-size: 23px;&quot;&gt;=&lt;/font&gt;" style="text;html=1;resizable=0;points=[];align=center;verticalAlign=middle;labelBackgroundColor=#ffffff;fontSize=23;" parent="1" vertex="1" connectable="0">
          <mxGeometry x="939.5" y="121.16666666666652" as="geometry">
            <mxPoint x="1" y="-4.5" as="offset"/>
          </mxGeometry>
        </mxCell>
        <mxCell id="Kf4OGwQjmnl409fR8g-T-32" value="&lt;font style=&quot;font-size: 18px&quot;&gt;is keyword&lt;/font&gt;" style="text;html=1;resizable=0;points=[];autosize=1;align=left;verticalAlign=top;spacingTop=-4;fontSize=29;" parent="1" vertex="1">
          <mxGeometry x="102.5" y="590" width="100" height="40" as="geometry"/>
        </mxCell>
        <mxCell id="Kf4OGwQjmnl409fR8g-T-42" value="&lt;div style=&quot;font-size: 16px&quot;&gt;&lt;font style=&quot;font-size: 16px&quot;&gt;&lt;br&gt;&lt;/font&gt;&lt;/div&gt;" style="text;html=1;resizable=0;points=[];autosize=1;align=left;verticalAlign=top;spacingTop=1;fontSize=16;rotation=0;spacing=0;" parent="1" vertex="1">
          <mxGeometry x="410" y="660" width="20" height="30" as="geometry"/>
        </mxCell>
        <mxCell id="Kf4OGwQjmnl409fR8g-T-43" value="&lt;div style=&quot;font-size: 16px&quot;&gt;&lt;font style=&quot;font-size: 16px&quot;&gt;spaces on&lt;/font&gt;&lt;/div&gt;&lt;div style=&quot;font-size: 16px&quot;&gt;&lt;font style=&quot;font-size: 16px&quot;&gt; stack &amp;lt; spaces&lt;br&gt;&lt;/font&gt;&lt;/div&gt;" style="text;html=1;resizable=0;points=[];autosize=1;align=left;verticalAlign=top;spacingTop=1;fontSize=16;rotation=0;spacing=0;" parent="1" vertex="1">
          <mxGeometry x="335" y="825" width="120" height="40" as="geometry"/>
        </mxCell>
        <mxCell id="Kf4OGwQjmnl409fR8g-T-44" value="&lt;div style=&quot;font-size: 15px&quot;&gt;&lt;font style=&quot;font-size: 15px&quot;&gt;spaces on&lt;/font&gt;&lt;/div&gt;&lt;div style=&quot;font-size: 15px&quot;&gt;&lt;font style=&quot;font-size: 15px&quot;&gt; stack &amp;gt; spaces&lt;br&gt;&lt;/font&gt;&lt;/div&gt;" style="text;html=1;resizable=0;points=[];autosize=1;align=left;verticalAlign=top;spacingTop=1;fontSize=16;rotation=0;spacing=0;" parent="1" vertex="1">
          <mxGeometry x="565" y="810" width="120" height="40" as="geometry"/>
        </mxCell>
        <mxCell id="Kf4OGwQjmnl409fR8g-T-45" value="&lt;div style=&quot;font-size: 16px&quot;&gt;&lt;font style=&quot;font-size: 16px&quot;&gt;spaces on&lt;/font&gt;&lt;/div&gt;&lt;div style=&quot;font-size: 16px&quot;&gt;&lt;font style=&quot;font-size: 16px&quot;&gt; stack =&lt;/font&gt;&lt;/div&gt;&lt;div style=&quot;font-size: 16px&quot;&gt;&lt;font style=&quot;font-size: 16px&quot;&gt; spaces&lt;br&gt;&lt;/font&gt;&lt;/div&gt;" style="text;html=1;resizable=0;points=[];autosize=1;align=left;verticalAlign=top;spacingTop=1;fontSize=16;rotation=0;spacing=0;" parent="1" vertex="1">
          <mxGeometry x="440" y="669.5" width="90" height="60" as="geometry"/>
        </mxCell>
        <mxCell id="Kf4OGwQjmnl409fR8g-T-46" value="&lt;div&gt;is line&lt;/div&gt;&lt;div&gt; beginning&lt;/div&gt;" style="text;html=1;resizable=0;points=[];autosize=1;align=left;verticalAlign=top;spacingTop=1;fontSize=16;rotation=0;spacing=0;" parent="1" vertex="1">
          <mxGeometry x="550" y="742.5" width="90" height="40" as="geometry"/>
        </mxCell>
        <mxCell id="Kf4OGwQjmnl409fR8g-T-52" value="&lt;font style=&quot;font-size: 23px&quot;&gt;!&lt;/font&gt;" style="text;html=1;resizable=0;points=[];align=center;verticalAlign=middle;labelBackgroundColor=#ffffff;fontSize=29;" parent="1" vertex="1" connectable="0">
          <mxGeometry x="702.5" y="420" as="geometry">
            <mxPoint x="186" y="-87" as="offset"/>
          </mxGeometry>
        </mxCell>
        <mxCell id="Kf4OGwQjmnl409fR8g-T-56" value="&lt;div&gt;white space&lt;br&gt;&lt;/div&gt;&lt;div&gt;not line &lt;br&gt;&lt;/div&gt;&lt;div&gt;beginning&lt;br&gt;&lt;/div&gt;" style="text;html=1;resizable=0;points=[];autosize=1;align=left;verticalAlign=top;spacingTop=1;fontSize=16;rotation=0;spacing=0;" parent="1" vertex="1">
          <mxGeometry x="330" y="672" width="100" height="60" as="geometry"/>
        </mxCell>
        <mxCell id="D40imSKEfPFC3WLuh7PR-14" value="&lt;font style=&quot;font-size: 26px;&quot;&gt;&#39; &lt;/font&gt;" style="text;html=1;resizable=0;points=[];autosize=1;align=left;verticalAlign=top;spacingTop=-4;fontSize=26;" parent="1" vertex="1">
          <mxGeometry x="677.5" y="665" width="20" height="20" as="geometry"/>
        </mxCell>
        <mxCell id="kk19jb1IvxCeBUpHuE0u-66" style="rounded=0;orthogonalLoop=1;jettySize=auto;html=1;exitX=1;exitY=1;exitDx=0;exitDy=0;entryX=0;entryY=0;entryDx=0;entryDy=0;fontSize=26;" edge="1" parent="1" source="D40imSKEfPFC3WLuh7PR-17" target="D40imSKEfPFC3WLuh7PR-28">
          <mxGeometry relative="1" as="geometry"/>
        </mxCell>
        <mxCell id="kk19jb1IvxCeBUpHuE0u-72" style="edgeStyle=none;rounded=0;orthogonalLoop=1;jettySize=auto;html=1;exitX=0.5;exitY=1;exitDx=0;exitDy=0;entryX=0;entryY=0;entryDx=0;entryDy=0;fontSize=26;" edge="1" parent="1">
          <mxGeometry relative="1" as="geometry">
            <mxPoint x="738" y="722.5" as="sourcePoint"/>
            <mxPoint x="871.7867965643959" y="856.2867965643961" as="targetPoint"/>
          </mxGeometry>
        </mxCell>
        <mxCell id="D40imSKEfPFC3WLuh7PR-17" value="&lt;div&gt;str&lt;/div&gt;&lt;div&gt;start&lt;br&gt;&lt;/div&gt;" style="ellipse;whiteSpace=wrap;html=1;aspect=fixed;fontSize=18;" parent="1" vertex="1">
          <mxGeometry x="702.5" y="657.5" width="65" height="65" as="geometry"/>
        </mxCell>
        <mxCell id="D40imSKEfPFC3WLuh7PR-28" value="&lt;div&gt;STR&lt;/div&gt;&lt;div&gt;END&lt;br&gt;&lt;/div&gt;" style="ellipse;shape=doubleEllipse;html=1;dashed=0;whitespace=wrap;aspect=fixed;fontFamily=Verdana;fontSize=18;" parent="1" vertex="1">
          <mxGeometry x="850" y="755" width="60" height="60" as="geometry"/>
        </mxCell>
        <mxCell id="kk19jb1IvxCeBUpHuE0u-5" value="!&lt;font style=&quot;font-size: 18px&quot;&gt;=&lt;/font&gt;" style="ellipse;shape=doubleEllipse;html=1;dashed=0;whitespace=wrap;aspect=fixed;fontFamily=Verdana;fontSize=18;" vertex="1" parent="1">
          <mxGeometry x="880" y="22" width="60" height="60" as="geometry"/>
        </mxCell>
        <mxCell id="kk19jb1IvxCeBUpHuE0u-7" value="&lt;font style=&quot;font-size: 23px;&quot;&gt;=&lt;/font&gt;" style="text;html=1;resizable=0;points=[];align=center;verticalAlign=middle;labelBackgroundColor=#ffffff;fontSize=23;" vertex="1" connectable="0" parent="1">
          <mxGeometry x="880" y="190.16666666666652" as="geometry">
            <mxPoint x="-160" y="-74.5" as="offset"/>
          </mxGeometry>
        </mxCell>
        <mxCell id="kk19jb1IvxCeBUpHuE0u-10" value="&amp;lt;diagram/&amp;gt;" style="text;html=1;" vertex="1" parent="1">
          <mxGeometry x="280" y="740" width="90" height="30" as="geometry"/>
        </mxCell>
        <mxCell id="kk19jb1IvxCeBUpHuE0u-60" style="edgeStyle=orthogonalEdgeStyle;curved=1;rounded=0;orthogonalLoop=1;jettySize=auto;html=1;entryX=1;entryY=0.5;entryDx=0;entryDy=0;fontSize=26;" edge="1" parent="1" source="kk19jb1IvxCeBUpHuE0u-19" target="phEVHog4hxKk8a_AKW_x-1">
          <mxGeometry relative="1" as="geometry">
            <Array as="points">
              <mxPoint x="1340" y="187"/>
              <mxPoint x="1340" y="610"/>
            </Array>
          </mxGeometry>
        </mxCell>
        <mxCell id="kk19jb1IvxCeBUpHuE0u-19" value="#" style="ellipse;whiteSpace=wrap;html=1;aspect=fixed;fontSize=18;" vertex="1" parent="1">
          <mxGeometry x="1240" y="155" width="65" height="65" as="geometry"/>
        </mxCell>
        <mxCell id="kk19jb1IvxCeBUpHuE0u-22" value="#" style="text;html=1;resizable=0;points=[];autosize=1;align=left;verticalAlign=top;spacingTop=-4;strokeWidth=2;perimeterSpacing=2;fontSize=17;" vertex="1" parent="1">
          <mxGeometry x="1230" y="329.5" width="20" height="20" as="geometry"/>
        </mxCell>
        <mxCell id="kk19jb1IvxCeBUpHuE0u-27" value="\n" style="text;html=1;resizable=0;points=[];align=center;verticalAlign=middle;labelBackgroundColor=#ffffff;fontSize=18;" vertex="1" connectable="0" parent="1">
          <mxGeometry x="949.8571948615543" y="732.1111933574783" as="geometry">
            <mxPoint x="19" y="-110" as="offset"/>
          </mxGeometry>
        </mxCell>
        <mxCell id="kk19jb1IvxCeBUpHuE0u-30" value=":" style="ellipse;shape=doubleEllipse;html=1;dashed=0;whitespace=wrap;aspect=fixed;fontFamily=Verdana;fontSize=18;" vertex="1" parent="1">
          <mxGeometry x="1030" y="160" width="60" height="60" as="geometry"/>
        </mxCell>
        <mxCell id="kk19jb1IvxCeBUpHuE0u-33" value=":" style="text;html=1;resizable=0;points=[];align=center;verticalAlign=middle;labelBackgroundColor=#ffffff;fontSize=29;" vertex="1" connectable="0" parent="1">
          <mxGeometry x="1029.857142857143" y="584.4285714285716" as="geometry">
            <mxPoint y="-254.5" as="offset"/>
          </mxGeometry>
        </mxCell>
        <mxCell id="kk19jb1IvxCeBUpHuE0u-34" value="[" style="ellipse;shape=doubleEllipse;html=1;dashed=0;whitespace=wrap;aspect=fixed;fontFamily=Verdana;fontSize=18;" vertex="1" parent="1">
          <mxGeometry x="1100" y="160" width="60" height="60" as="geometry"/>
        </mxCell>
        <mxCell id="kk19jb1IvxCeBUpHuE0u-35" value="]" style="ellipse;shape=doubleEllipse;html=1;dashed=0;whitespace=wrap;aspect=fixed;fontFamily=Verdana;fontSize=18;" vertex="1" parent="1">
          <mxGeometry x="1170" y="160" width="60" height="60" as="geometry"/>
        </mxCell>
        <mxCell id="kk19jb1IvxCeBUpHuE0u-38" value="[" style="text;html=1;resizable=0;points=[];align=center;verticalAlign=middle;labelBackgroundColor=#ffffff;fontSize=21;" vertex="1" connectable="0" parent="1">
          <mxGeometry x="1070.2193673790212" y="419.85729459339973" as="geometry">
            <mxPoint x="12" y="-83.5" as="offset"/>
          </mxGeometry>
        </mxCell>
        <mxCell id="kk19jb1IvxCeBUpHuE0u-39" value="]" style="text;html=1;fontSize=17;" vertex="1" parent="1">
          <mxGeometry x="1155" y="319.5" width="30" height="40" as="geometry"/>
        </mxCell>
        <mxCell id="kk19jb1IvxCeBUpHuE0u-40" value="%" style="ellipse;shape=doubleEllipse;html=1;dashed=0;whitespace=wrap;aspect=fixed;fontFamily=Verdana;fontSize=18;" vertex="1" parent="1">
          <mxGeometry x="250" y="199.5" width="60" height="60" as="geometry"/>
        </mxCell>
        <mxCell id="kk19jb1IvxCeBUpHuE0u-43" value="%" style="text;html=1;resizable=0;points=[];autosize=1;align=left;verticalAlign=top;spacingTop=-4;fontSize=17;" vertex="1" parent="1">
          <mxGeometry x="330" y="260" width="30" height="20" as="geometry"/>
        </mxCell>
        <mxCell id="kk19jb1IvxCeBUpHuE0u-46" value="&lt;div&gt;doc str&lt;/div&gt;&lt;div&gt;start&lt;br&gt;&lt;/div&gt;" style="ellipse;whiteSpace=wrap;html=1;aspect=fixed;fontSize=18;" vertex="1" parent="1">
          <mxGeometry x="845" y="657.5" width="65" height="65" as="geometry"/>
        </mxCell>
        <mxCell id="kk19jb1IvxCeBUpHuE0u-48" value="&quot;" style="text;html=1;resizable=0;points=[];autosize=1;align=left;verticalAlign=top;spacingTop=-4;fontSize=26;" vertex="1" parent="1">
          <mxGeometry x="795" y="652" width="20" height="30" as="geometry"/>
        </mxCell>
        <mxCell id="kk19jb1IvxCeBUpHuE0u-49" value="Num" style="ellipse;shape=doubleEllipse;html=1;dashed=0;whitespace=wrap;aspect=fixed;fontFamily=Verdana;fontSize=18;" vertex="1" parent="1">
          <mxGeometry x="210" y="622" width="60" height="60" as="geometry"/>
        </mxCell>
        <mxCell id="kk19jb1IvxCeBUpHuE0u-52" value="1..9" style="text;html=1;resizable=0;points=[];align=center;verticalAlign=middle;labelBackgroundColor=#ffffff;fontSize=18;" vertex="1" connectable="0" parent="1">
          <mxGeometry x="325.21428571428567" y="640" as="geometry">
            <mxPoint x="-36" y="-16" as="offset"/>
          </mxGeometry>
        </mxCell>
        <mxCell id="kk19jb1IvxCeBUpHuE0u-56" value="DEDENT" style="ellipse;shape=doubleEllipse;html=1;dashed=0;whitespace=wrap;aspect=fixed;fontFamily=Verdana;fontSize=13;" vertex="1" parent="1">
          <mxGeometry x="300" y="947.5" width="70" height="70" as="geometry"/>
        </mxCell>
        <mxCell id="kk19jb1IvxCeBUpHuE0u-58" value="-" style="text;html=1;resizable=0;points=[];align=center;verticalAlign=middle;labelBackgroundColor=#ffffff;fontSize=21;" vertex="1" connectable="0" parent="1">
          <mxGeometry x="179.78571428571433" y="430" as="geometry">
            <mxPoint x="-50" y="-16" as="offset"/>
          </mxGeometry>
        </mxCell>
        <mxCell id="kk19jb1IvxCeBUpHuE0u-61" value="&#39;\n&#39;, EOF" style="text;html=1;resizable=0;points=[];align=center;verticalAlign=middle;labelBackgroundColor=#ffffff;fontSize=18;" vertex="1" connectable="0" parent="1">
          <mxGeometry x="1369.8571948615543" y="419.6111933574783" as="geometry">
            <mxPoint x="19" y="-110" as="offset"/>
          </mxGeometry>
        </mxCell>
        <mxCell id="kk19jb1IvxCeBUpHuE0u-67" value="&lt;font style=&quot;font-size: 26px;&quot;&gt;&#39; &lt;/font&gt;" style="text;html=1;resizable=0;points=[];autosize=1;align=left;verticalAlign=top;spacingTop=-4;fontSize=26;" vertex="1" parent="1">
          <mxGeometry x="815" y="719.5" width="20" height="20" as="geometry"/>
        </mxCell>
        <mxCell id="kk19jb1IvxCeBUpHuE0u-74" style="edgeStyle=orthogonalEdgeStyle;rounded=0;orthogonalLoop=1;jettySize=auto;html=1;entryX=0;entryY=1;entryDx=0;entryDy=0;fontSize=26;curved=1;" edge="1" parent="1" source="kk19jb1IvxCeBUpHuE0u-70" target="D40imSKEfPFC3WLuh7PR-17">
          <mxGeometry relative="1" as="geometry"/>
        </mxCell>
        <mxCell id="kk19jb1IvxCeBUpHuE0u-70" value="&lt;div&gt;STR&lt;br&gt;&lt;/div&gt;&lt;div&gt;ESC&lt;br&gt;&lt;/div&gt;" style="ellipse;shape=doubleEllipse;html=1;dashed=0;whitespace=wrap;aspect=fixed;fontFamily=Verdana;fontSize=18;" vertex="1" parent="1">
          <mxGeometry x="860" y="847.5" width="60" height="60" as="geometry"/>
        </mxCell>
        <mxCell id="kk19jb1IvxCeBUpHuE0u-73" value="\" style="text;html=1;resizable=0;points=[];autosize=1;align=left;verticalAlign=top;spacingTop=-4;fontSize=26;" vertex="1" parent="1">
          <mxGeometry x="793" y="802.5" width="20" height="30" as="geometry"/>
        </mxCell>
        <mxCell id="kk19jb1IvxCeBUpHuE0u-76" value="n, t, \,&#39;" style="text;html=1;resizable=0;points=[];align=center;verticalAlign=middle;labelBackgroundColor=#ffffff;fontSize=18;" vertex="1" connectable="0" parent="1">
          <mxGeometry x="747.3571948615543" y="990.1111933574783" as="geometry">
            <mxPoint x="19" y="-110" as="offset"/>
          </mxGeometry>
        </mxCell>
        <mxCell id="kk19jb1IvxCeBUpHuE0u-80" value=")" style="text;html=1;resizable=0;points=[];align=center;verticalAlign=middle;labelBackgroundColor=#ffffff;fontSize=21;" vertex="1" connectable="0" parent="1">
          <mxGeometry x="815.2179942412936" y="419.78586549052557" as="geometry">
            <mxPoint x="12" y="-83.5" as="offset"/>
          </mxGeometry>
        </mxCell>
        <mxCell id="kk19jb1IvxCeBUpHuE0u-83" value="&lt;font style=&quot;font-size: 23px;&quot;&gt;=&lt;/font&gt;" style="text;html=1;resizable=0;points=[];align=center;verticalAlign=middle;labelBackgroundColor=#ffffff;fontSize=23;" vertex="1" connectable="0" parent="1">
          <mxGeometry x="860" y="419.6666666666665" as="geometry">
            <mxPoint x="-160" y="-74.5" as="offset"/>
          </mxGeometry>
        </mxCell>
      </root>
    </mxGraphModel>
  </diagram>
</mxfile>
